<svg width="24" height="24" viewBox="0 0 24 24" fill="none" xmlns="http://www.w3.org/2000/svg">
<g clip-path="url(#clip0_236_4707)">
<path d="M4 23.9999L5.333 21.3329L8 19.9999L5.333 18.6669L4 15.9999L2.667 18.6669L0 19.9999L2.667 21.3329L4 23.9999Z" fill="#303441"/>
<path d="M21.3327 21.3329L23.9997 19.9999L21.3327 18.6669L19.9997 15.9999L18.6668 18.6669L15.9998 19.9999L18.6668 21.3329L19.9997 23.9999L21.3327 21.3329Z" fill="#303441"/>
<path d="M13.3332 2.667L12.0002 0L10.6672 2.667L8.00024 4L10.6672 5.333L12.0002 8L13.3332 5.333L16.0002 4L13.3332 2.667Z" fill="#303441"/>
<path d="M4.99975 14C5.55204 14 5.99975 13.5523 5.99975 13C5.99975 12.4477 5.55204 12 4.99975 12C4.44747 12 3.99976 12.4477 3.99976 13C3.99976 13.5523 4.44747 14 4.99975 14Z" fill="#303441"/>
<path d="M1 10.0001C1.55228 10.0001 2 9.5524 2 9.00012C2 8.44784 1.55228 8.00012 1 8.00012C0.447715 8.00012 0 8.44784 0 9.00012C0 9.5524 0.447715 10.0001 1 10.0001Z" fill="#303441"/>
<path d="M4.99975 5.99981C5.55204 5.99981 5.99975 5.5521 5.99975 4.99981C5.99975 4.44753 5.55204 3.99982 4.99975 3.99982C4.44747 3.99982 3.99976 4.44753 3.99976 4.99981C3.99976 5.5521 4.44747 5.99981 4.99975 5.99981Z" fill="#303441"/>
<path d="M1 2C1.55228 2 2 1.55228 2 1C2 0.447715 1.55228 0 1 0C0.447715 0 0 0.447715 0 1C0 1.55228 0.447715 2 1 2Z" fill="#303441"/>
<path d="M22.9997 14C23.552 14 23.9997 13.5523 23.9997 13C23.9997 12.4477 23.552 12 22.9997 12C22.4475 12 21.9998 12.4477 21.9998 13C21.9998 13.5523 22.4475 14 22.9997 14Z" fill="#303441"/>
<path d="M19 10.0001C19.5523 10.0001 20 9.5524 20 9.00012C20 8.44784 19.5523 8.00012 19 8.00012C18.4477 8.00012 18 8.44784 18 9.00012C18 9.5524 18.4477 10.0001 19 10.0001Z" fill="#303441"/>
<path d="M22.9997 5.99981C23.552 5.99981 23.9997 5.5521 23.9997 4.99981C23.9997 4.44753 23.552 3.99982 22.9997 3.99982C22.4475 3.99982 21.9998 4.44753 21.9998 4.99981C21.9998 5.5521 22.4475 5.99981 22.9997 5.99981Z" fill="#303441"/>
<path d="M19 2C19.5523 2 20 1.55228 20 1C20 0.447715 19.5523 0 19 0C18.4477 0 18 0.447715 18 1C18 1.55228 18.4477 2 19 2Z" fill="#303441"/>
<path d="M13.9998 23.9999C14.552 23.9999 14.9998 23.5521 14.9998 22.9999C14.9998 22.4476 14.552 21.9999 13.9998 21.9999C13.4475 21.9999 12.9998 22.4476 12.9998 22.9999C12.9998 23.5521 13.4475 23.9999 13.9998 23.9999Z" fill="#303441"/>
<path d="M10 20C10.5523 20 11 19.5523 11 19C11 18.4477 10.5523 18 10 18C9.44771 18 9 18.4477 9 19C9 19.5523 9.44771 20 10 20Z" fill="#303441"/>
<path d="M13.9998 16.0001C14.552 16.0001 14.9998 15.5524 14.9998 15.0001C14.9998 14.4478 14.552 14.0001 13.9998 14.0001C13.4475 14.0001 12.9998 14.4478 12.9998 15.0001C12.9998 15.5524 13.4475 16.0001 13.9998 16.0001Z" fill="#303441"/>
<path d="M10 11.9998C10.5523 11.9998 11 11.5521 11 10.9998C11 10.4475 10.5523 9.99982 10 9.99982C9.44771 9.99982 9 10.4475 9 10.9998C9 11.5521 9.44771 11.9998 10 11.9998Z" fill="#303441"/>
</g>
<defs>
<clipPath id="clip0_236_4707">
<rect width="24" height="24" fill="white"/>
</clipPath>
</defs>
</svg>
