<svg width="24" height="24" viewBox="0 0 24 24" fill="none" xmlns="http://www.w3.org/2000/svg">
<g clip-path="url(#clip0_236_4693)">
<path d="M23.9121 20.0271L22.8551 14.0671C23.2906 13.6738 23.6195 13.1767 23.8111 12.622C24.0027 12.0674 24.0509 11.4733 23.9511 10.895C23.8513 10.3168 23.6067 9.77321 23.2402 9.31493C22.8737 8.85664 22.3972 8.49857 21.8551 8.27406C21.4557 5.98762 20.2734 3.91132 18.5108 2.4011C16.7483 0.89087 14.5153 0.040783 12.1947 -0.00343302C9.87407 -0.047649 7.61033 0.716759 5.79155 2.15875C3.97277 3.60074 2.71224 5.6305 2.22605 7.90006L1.50005 12.0001H3.00005C4.79561 11.989 6.56628 11.5791 8.18405 10.8001C8.06561 11.0145 8.00238 11.2551 8.00005 11.5001C7.99869 11.7913 8.08216 12.0767 8.24026 12.3213C8.39835 12.5659 8.62425 12.7592 8.89036 12.8776C9.15648 12.9959 9.4513 13.0343 9.73884 12.9879C10.0264 12.9416 10.2942 12.8125 10.5096 12.6164C10.725 12.4204 10.8787 12.1659 10.9519 11.884C11.0251 11.6021 11.0146 11.305 10.9218 11.0289C10.8289 10.7528 10.6577 10.5098 10.4291 10.3294C10.2004 10.149 9.92415 10.0391 9.63405 10.0131C11.7676 8.68188 13.5745 6.88796 14.9211 4.76406C14.3322 4.43716 13.6921 4.21264 13.0281 4.10006C11.4901 6.37906 8.21705 9.56306 3.89305 9.95906L4.18805 8.29006C4.59633 6.43704 5.64995 4.78947 7.16077 3.64153C8.67159 2.49359 10.5413 1.92003 12.4359 2.02326C14.3305 2.12649 16.1268 2.89979 17.504 4.20508C18.8811 5.51036 19.7495 7.26266 19.9541 9.14906L20.0321 9.89506L20.7701 10.0281C21.1344 10.0993 21.4594 10.3032 21.6821 10.6001C21.9049 10.8971 22.0096 11.2662 21.976 11.6359C21.9424 12.0056 21.7729 12.3497 21.5003 12.6017C21.2276 12.8537 20.8713 12.9956 20.5001 13.0001C20.4141 13.0001 19.4131 12.8251 19.4131 12.8251L19.1311 13.6251C18.2141 16.2221 15.1301 19.0001 12.0001 19.0001C9.13905 19.0001 6.32205 16.6771 5.15805 14.3001L4.64805 17.1791C5.59898 18.3447 6.77724 19.3045 8.11105 20.0001H8.00005V22.0001H3.23805C3.05238 21.9994 2.86922 21.9572 2.70203 21.8764C2.53485 21.7956 2.38791 21.6784 2.27201 21.5333C2.15611 21.3882 2.07422 21.219 2.03234 21.0382C1.99047 20.8573 1.98969 20.6693 2.03005 20.4881L3.18005 13.9881C3.12005 13.9881 3.06105 13.9991 3.00005 13.9991H1.14705L0.0650544 20.1151C-0.0308648 20.5854 -0.0210018 21.0712 0.0939295 21.5373C0.208861 22.0034 0.425984 22.4381 0.729584 22.8099C1.03318 23.1818 1.41566 23.4814 1.84933 23.6873C2.283 23.8931 2.75701 24 3.23705 24.0001H10.0001V20.7341C11.3098 21.0887 12.6903 21.0887 14.0001 20.7341V24.0001H20.7621C21.2566 24.0016 21.7448 23.889 22.1888 23.6712C22.6328 23.4534 23.0206 23.1361 23.3221 22.7441C23.6203 22.3657 23.8284 21.9244 23.9306 21.4536C24.0328 20.9829 24.0265 20.495 23.9121 20.0271ZM21.7401 21.5201C21.6249 21.6699 21.4768 21.7911 21.3071 21.8743C21.1375 21.9576 20.951 22.0006 20.7621 22.0001H16.0001V19.9541C18.0642 18.8444 19.7215 17.1065 20.7321 14.9921C20.8171 14.9871 20.8971 14.9631 20.9801 14.9521L21.9591 20.4521C22.0073 20.6349 22.0127 20.8265 21.9747 21.0117C21.9367 21.197 21.8564 21.371 21.7401 21.5201ZM14.5001 13.0001C14.2034 13.0001 13.9134 12.9121 13.6667 12.7473C13.42 12.5824 13.2278 12.3482 13.1142 12.0741C13.0007 11.8 12.971 11.4984 13.0289 11.2074C13.0868 10.9164 13.2296 10.6492 13.4394 10.4394C13.6492 10.2296 13.9164 10.0868 14.2074 10.0289C14.4984 9.971 14.8 10.0007 15.0741 10.1142C15.3482 10.2278 15.5824 10.42 15.7473 10.6667C15.9121 10.9134 16.0001 11.2034 16.0001 11.5001C16.0001 11.8979 15.842 12.2794 15.5607 12.5607C15.2794 12.842 14.8979 13.0001 14.5001 13.0001Z" fill="#303441"/>
</g>
<defs>
<clipPath id="clip0_236_4693">
<rect width="24" height="24" fill="white"/>
</clipPath>
</defs>
</svg>
