<svg width="44" height="44" viewBox="0 0 44 44" fill="none" xmlns="http://www.w3.org/2000/svg">
<rect x="0.5" y="0.5" width="43" height="43" stroke="#E1E4ED"/>
<path d="M13.5 26.6897L16.7197 22.5941C17.6326 21.4327 19.3791 21.3947 20.3417 22.5153L23.1724 25.8103M20.7279 22.9649C21.944 21.4181 23.6382 19.2267 23.7485 19.0841C23.7524 19.079 23.7562 19.0742 23.7601 19.0692C24.6749 17.9153 26.4157 17.8799 27.3762 18.998L30.2069 22.2931M15.8448 30.5H28.1552C29.4502 30.5 30.5 29.4502 30.5 28.1552V15.8448C30.5 14.5498 29.4502 13.5 28.1552 13.5H15.8448C14.5498 13.5 13.5 14.5498 13.5 15.8448V28.1552C13.5 29.4502 14.5498 30.5 15.8448 30.5Z" stroke="#353E5C" stroke-width="1.5" stroke-linecap="round" stroke-linejoin="round"/>
</svg>
