<svg width="60" height="60" viewBox="0 0 60 60" fill="none" xmlns="http://www.w3.org/2000/svg">
<rect width="60" height="60" rx="30" fill="#FFF5D9"/>
<g clip-path="url(#clip0_41_1836)">
<path d="M41 36.999H39V34.999C39 34.7338 38.8946 34.4795 38.7071 34.2919C38.5196 34.1044 38.2652 33.999 38 33.999C37.7348 33.999 37.4804 34.1044 37.2929 34.2919C37.1054 34.4795 37 34.7338 37 34.999V36.999H35C34.7348 36.999 34.4804 37.1044 34.2929 37.2919C34.1054 37.4794 34 37.7338 34 37.999C34 38.2642 34.1054 38.5186 34.2929 38.7061C34.4804 38.8937 34.7348 38.999 35 38.999H37V40.999C37 41.2642 37.1054 41.5186 37.2929 41.7061C37.4804 41.8937 37.7348 41.999 38 41.999C38.2652 41.999 38.5196 41.8937 38.7071 41.7061C38.8946 41.5186 39 41.2642 39 40.999V38.999H41C41.2652 38.999 41.5196 38.8937 41.7071 38.7061C41.8946 38.5186 42 38.2642 42 37.999C42 37.7338 41.8946 37.4794 41.7071 37.2919C41.5196 37.1044 41.2652 36.999 41 36.999Z" fill="#FFBB38"/>
<path d="M39 24H36C36 22.4087 35.3679 20.8826 34.2426 19.7574C33.1174 18.6321 31.5913 18 30 18C28.4087 18 26.8826 18.6321 25.7574 19.7574C24.6321 20.8826 24 22.4087 24 24H21C20.2044 24 19.4413 24.3161 18.8787 24.8787C18.3161 25.4413 18 26.2044 18 27V37C18.0016 38.3256 18.5289 39.5964 19.4662 40.5338C20.4036 41.4711 21.6744 41.9984 23 42H32C32.2652 42 32.5196 41.8946 32.7071 41.7071C32.8946 41.5196 33 41.2652 33 41C33 40.7348 32.8946 40.4804 32.7071 40.2929C32.5196 40.1054 32.2652 40 32 40H23C22.2044 40 21.4413 39.6839 20.8787 39.1213C20.3161 38.5587 20 37.7956 20 37V27C20 26.7348 20.1054 26.4804 20.2929 26.2929C20.4804 26.1054 20.7348 26 21 26H24V28C24 28.2652 24.1054 28.5196 24.2929 28.7071C24.4804 28.8946 24.7348 29 25 29C25.2652 29 25.5196 28.8946 25.7071 28.7071C25.8946 28.5196 26 28.2652 26 28V26H34V28C34 28.2652 34.1054 28.5196 34.2929 28.7071C34.4804 28.8946 34.7348 29 35 29C35.2652 29 35.5196 28.8946 35.7071 28.7071C35.8946 28.5196 36 28.2652 36 28V26H39C39.2652 26 39.5196 26.1054 39.7071 26.2929C39.8946 26.4804 40 26.7348 40 27V32C40 32.2652 40.1054 32.5196 40.2929 32.7071C40.4804 32.8946 40.7348 33 41 33C41.2652 33 41.5196 32.8946 41.7071 32.7071C41.8946 32.5196 42 32.2652 42 32V27C42 26.2044 41.6839 25.4413 41.1213 24.8787C40.5587 24.3161 39.7956 24 39 24ZM26 24C26 22.9391 26.4214 21.9217 27.1716 21.1716C27.9217 20.4214 28.9391 20 30 20C31.0609 20 32.0783 20.4214 32.8284 21.1716C33.5786 21.9217 34 22.9391 34 24H26Z" fill="#FFBB38"/>
</g>
<defs>
<clipPath id="clip0_41_1836">
<rect width="24" height="24" fill="white" transform="translate(18 18)"/>
</clipPath>
</defs>
</svg>
