<svg width="32" height="32" viewBox="0 0 32 32" fill="none" xmlns="http://www.w3.org/2000/svg">
<g clip-path="url(#clip0_21_129417)">
<rect width="32" height="32" fill="#FFCC00"/>
<path fill-rule="evenodd" clip-rule="evenodd" d="M16 10.8806C14.8834 10.8806 13.9782 11.7858 13.9782 12.9023C13.9782 14.0189 14.8834 14.9241 16 14.9241C17.1166 14.9241 18.0217 14.0189 18.0217 12.9023C18.0217 11.7858 17.1166 10.8806 16 10.8806ZM12.9873 12.9023C12.9873 11.2385 14.3361 9.88965 16 9.88965C17.6639 9.88965 19.0127 11.2385 19.0127 12.9023C19.0127 14.5662 17.6639 15.915 16 15.915C14.3361 15.915 12.9873 14.5662 12.9873 12.9023Z" fill="#6D758F"/>
<path fill-rule="evenodd" clip-rule="evenodd" d="M12.2207 17.9542C13.1261 17.4137 14.3512 17.0537 16.0001 17.0537C17.649 17.0537 18.874 17.4137 19.7795 17.9542C20.6853 18.4949 21.2423 19.199 21.5817 19.8415L21.5817 19.8415C21.8854 20.4166 21.786 21.0132 21.4413 21.4461C21.1098 21.8624 20.5701 22.1109 19.9908 22.1109H12.0093C11.43 22.1109 10.8903 21.8624 10.5588 21.4461C10.2141 21.0132 10.1148 20.4166 10.4185 19.8415C10.7578 19.199 11.3148 18.4949 12.2207 17.9542ZM12.7286 18.8051C12.0023 19.2386 11.5629 19.7964 11.2947 20.3043L11.2947 20.3043C11.1854 20.5113 11.2202 20.6859 11.334 20.8288C11.4609 20.9882 11.7042 21.12 12.0093 21.12H19.9908C20.296 21.12 20.5392 20.9882 20.6661 20.8288C20.78 20.6859 20.8147 20.5113 20.7055 20.3043C20.4372 19.7964 19.9979 19.2386 19.2716 18.8051C18.5448 18.3713 17.5019 18.0446 16.0001 18.0446C14.4982 18.0446 13.4553 18.3713 12.7286 18.8051Z" fill="#6D758F"/>
</g>
<defs>
<clipPath id="clip0_21_129417">
<rect width="32" height="32" rx="16" fill="white"/>
</clipPath>
</defs>
</svg>
